<?xml version="1.0" encoding="utf-8"?>
<!-- Generator: Adobe Illustrator 27.0.1, SVG Export Plug-In . SVG Version: 6.00 Build 0)  -->
<svg version="1.1" id="Lager_1" xmlns="http://www.w3.org/2000/svg" xmlns:xlink="http://www.w3.org/1999/xlink" x="0px" y="0px"
	 viewBox="0 0 48 48" style="enable-background:new 0 0 48 48;" xml:space="preserve">
<style type="text/css">
	.st0{fill:#FFFFFF;}
</style>
<path class="st0" d="M18.4,36.4l2.1-2.2l-4.2-4.2H26v-3h-9.6l4.2-4.2l-2.1-2.1l-7.9,7.9L18.4,36.4z M29.6,27.7l7.8-7.9L29.6,12
	l-2.2,2.1l4.2,4.2H22v3h9.6l-4.2,4.2L29.6,27.7z M24,44c-2.7,0-5.3-0.5-7.8-1.6c-2.4-1-4.6-2.5-6.4-4.3s-3.2-3.9-4.3-6.4
	S4,26.7,4,24c0-2.8,0.5-5.4,1.6-7.8s2.5-4.5,4.3-6.4s3.9-3.2,6.4-4.3S21.3,4,24,4c2.8,0,5.4,0.5,7.8,1.6s4.6,2.5,6.3,4.3
	c1.8,1.8,3.2,3.9,4.3,6.4c1.1,2.4,1.6,5,1.6,7.8c0,2.7-0.5,5.3-1.6,7.8c-1,2.4-2.5,4.6-4.3,6.4c-1.8,1.8-3.9,3.2-6.4,4.3
	C29.4,43.5,26.8,44,24,44z"/>
</svg>
