<?xml version="1.0" encoding="utf-8"?>
<!-- Generator: Adobe Illustrator 27.0.0, SVG Export Plug-In . SVG Version: 6.00 Build 0)  -->
<svg version="1.1" id="Lager_1" xmlns="http://www.w3.org/2000/svg" xmlns:xlink="http://www.w3.org/1999/xlink" x="0px" y="0px"
	 viewBox="0 0 48 48" style="enable-background:new 0 0 48 48;" xml:space="preserve">
<style type="text/css">
	.st0{fill:#FFFFFF;}
</style>
<path class="st0" d="M33.4,31l8.6-7.4l4.2,0.4l-9.5,8.1l2.8,12.3l-3.7-2.2L33.4,31z M28.8,16.6l-2.9-6.7L27.5,6l4.6,10.9L28.8,16.6z
	 M13.2,37.8l7.9-4.7l7.9,4.8l-2.1-8.9l6.9-6l-9.1-0.8L21,13.7l-3.5,8.3l-9.1,0.8l6.9,6L13.2,37.8z M8.6,44L11.9,30L1,20.5l14.4-1.2
	L21,6l5.6,13.2L41,20.5L30.1,30L33.3,44L21,36.6L8.6,44z"/>
</svg>
